  0
SECTION
  2
HEADER
  9
$ACADVER
  1
AC1018
  9
$HANDSEED
  5
FFFFFFFF
  9
$ANGBASE
  50
0.0
  9
$ANGDIR
  70
1
  9
$MEASUREMENT
  70
1
  9
$INSUNITS
  70
4
  0
ENDSEC
  0
SECTION
  2
TABLES
  0
TABLE
  2
APPID
  5
1
330
0
100
AcDbSymbolTable
 70
1
  0
APPID
  5
2
330
1
100
AcDbSymbolTableRecord
100
AcDbRegAppTableRecord
  2
ACAD
 70
0
  0
ENDTAB
  0
TABLE
  2
LTYPE
  5
3
330
0
100
AcDbSymbolTable
 70
6
  0
LTYPE
  5
4
330
3
100
AcDbSymbolTableRecord
100
AcDbLinetypeTableRecord
  2
ByBlock
 70
0
  3

 72
65
 73
0
 40
0
  0
LTYPE
  5
5
330
3
100
AcDbSymbolTableRecord
100
AcDbLinetypeTableRecord
  2
ByLayer
 70
0
  3

 72
65
 73
0
 40
0
  0
LTYPE
  5
6
330
3
100
AcDbSymbolTableRecord
100
AcDbLinetypeTableRecord
  2
CONTINUOUS
 70
0
  3
Solid line
 72
65
 73
0
 40
0
  0
LTYPE
  5
7
330
3
100
AcDbSymbolTableRecord
100
AcDbLinetypeTableRecord
  2
DASHDOT
 70
0
  3
Dash Dot ____ _ ____ _
 72
65
 73
4
 40
2
 49
1.25
 74
0
 49
-0.25
 74
0
 49
0.25
 74
0
 49
-0.25
 74
0
  0
LTYPE
  5
8
330
3
100
AcDbSymbolTableRecord
100
AcDbLinetypeTableRecord
  2
DASHED
 70
0
  3
Dashed __ __ __ __ __
 72
65
 73
2
 40
0.75
 49
0.5
 74
0
 49
-0.25
 74
0
  0
LTYPE
  5
9
330
3
100
AcDbSymbolTableRecord
100
AcDbLinetypeTableRecord
  2
DOTTED
 70
0
  3
Dotted .  .  .  .
 72
65
 73
2
 40
0.2
 49
0.0
 74
0
 49
-0.2
 74
0
  0
ENDTAB
  0
TABLE
  2
STYLE
  5
A
330
0
100
AcDbSymbolTable
 70
4
  0
STYLE
  5
B
330
A
100
AcDbSymbolTableRecord
100
AcDbTextStyleTableRecord
  2
KICAD
 70
0
 40
0
 41
1
 42
1
 50
0
 71
0
  3
isocp.shx
  0
STYLE
  5
C
330
A
100
AcDbSymbolTableRecord
100
AcDbTextStyleTableRecord
  2
KICADB
 70
0
 40
0
 41
1
 42
1
 50
0
 71
0
  3
isocp.shx
  0
STYLE
  5
D
330
A
100
AcDbSymbolTableRecord
100
AcDbTextStyleTableRecord
  2
KICADI
 70
0
 40
0
 41
1
 42
1
 50
15
 71
0
  3
isocp.shx
  0
STYLE
  5
E
330
A
100
AcDbSymbolTableRecord
100
AcDbTextStyleTableRecord
  2
KICADBI
 70
0
 40
0
 41
1
 42
1
 50
15
 71
0
  3
isocp.shx
  0
ENDTAB
  0
TABLE
  2
LAYER
  5
F
330
0
100
AcDbSymbolTable
 70
2
  0
LAYER
  5
12
330
F
100
AcDbSymbolTableRecord
100
AcDbLayerTableRecord
  2
0
 70
0
 62
7
  6
CONTINUOUS
390
10
  0
LAYER
  5
13
330
F
100
AcDbSymbolTableRecord
100
AcDbLayerTableRecord
  2
Edge.Cuts
 70
0
 62
254
420
13685453
  6
CONTINUOUS
390
10
  0
ENDTAB
  0
TABLE
  2
VPORT
  5
14
330
0
100
AcDbSymbolTable
 70
0
  0
ENDTAB
  0
TABLE
  2
VIEW
  5
15
330
0
100
AcDbSymbolTable
 70
0
  0
ENDTAB
  0
TABLE
  2
UCS
  5
16
330
0
100
AcDbSymbolTable
 70
0
  0
ENDTAB
  0
TABLE
  2
DIMSTYLE
  5
17
330
0
100
AcDbSymbolTable
 70
1
100
AcDbDimStyleTable
 71
0
  0
DIMSTYLE
105
18
330
17
100
AcDbSymbolTableRecord
100
AcDbDimStyleTableRecord
  2
Standard
 70
0
  0
ENDTAB
  0
TABLE
  2
BLOCK_RECORD
  5
19
330
0
100
AcDbSymbolTable
 70
3
  0
BLOCK_RECORD
  5
1A
330
19
100
AcDbSymbolTableRecord
100
AcDbBlockTableRecord
  2
*Model_Space
340
1D
 70
0
280
1
281
0
  0
BLOCK_RECORD
  5
1B
330
19
100
AcDbSymbolTableRecord
100
AcDbBlockTableRecord
  2
*Paper_Space
340
1E
 70
0
280
1
281
0
  0
BLOCK_RECORD
  5
1C
330
19
100
AcDbSymbolTableRecord
100
AcDbBlockTableRecord
  2
*Paper_Space0
340
1F
 70
0
280
1
281
0
  0
ENDTAB
  0
ENDSEC
  0
SECTION
  2
BLOCKS
  0
BLOCK
  5
23
330
1A
100
AcDbEntity
  8
0
100
AcDbBlockBegin
  2
*Model_Space
 70
0
 10
0.0
 20
0.0
 30
0.0
  3
*Model_Space
  1

  0
ENDBLK
  5
22
330
1A
100
AcDbEntity
  8
0
100
AcDbBlockEnd
  0
BLOCK
  5
25
330
1B
100
AcDbEntity
 67
1
  8
0
100
AcDbBlockBegin
  2
*Paper_Space
 70
0
 10
0.0
 20
0.0
 30
0.0
  3
*Paper_Space
  1

  0
ENDBLK
  5
24
330
1B
100
AcDbEntity
 67
1
  8
0
100
AcDbBlockEnd
  0
BLOCK
  5
27
330
1C
100
AcDbEntity
 67
1
  8
0
100
AcDbBlockBegin
  2
*Paper_Space0
 70
0
 10
0.0
 20
0.0
 30
0.0
  3
*Paper_Space0
  1

  0
ENDBLK
  5
26
330
1C
100
AcDbEntity
 67
1
  8
0
100
AcDbBlockEnd
  0
ENDSEC
  0
SECTION
  2
ENTITIES
  0
LINE
  5
28
330
1A
100
AcDbEntity
  8
Edge.Cuts
  6
CONTINUOUS
100
AcDbLine
 10
230.0061529999999834
 20
-39.9762239999999949
 30
0
 11
230.0077249999999935
 21
-39.9762239999999949
 31
0
  0
LINE
  5
29
330
1A
100
AcDbEntity
  8
Edge.Cuts
  6
CONTINUOUS
100
AcDbLine
 10
230.0077249999999935
 20
-39.9762239999999949
 30
0
 11
230.0083169999999768
 21
-39.9766539999999964
 31
0
  0
LINE
  5
2A
330
1A
100
AcDbEntity
  8
Edge.Cuts
  6
CONTINUOUS
100
AcDbLine
 10
230.0083169999999768
 20
-39.9766539999999964
 30
0
 11
230.0095669999999757
 21
-39.9769030000000001
 31
0
  0
LINE
  5
2B
330
1A
100
AcDbEntity
  8
Edge.Cuts
  6
CONTINUOUS
100
AcDbLine
 10
230.0095669999999757
 20
-39.9769030000000001
 30
0
 11
230.0119759999999758
 21
-39.9793120000000002
 31
0
  0
LINE
  5
2C
330
1A
100
AcDbEntity
  8
Edge.Cuts
  6
CONTINUOUS
100
AcDbLine
 10
230.0119759999999758
 20
-39.9793120000000002
 30
0
 11
230.0202249999999822
 21
-39.9853049999999968
 31
0
  0
LINE
  5
2D
330
1A
100
AcDbEntity
  8
Edge.Cuts
  6
CONTINUOUS
100
AcDbLine
 10
230.0202249999999822
 20
-39.9853049999999968
 30
0
 11
230.0213099999999997
 21
-39.9886459999999957
 31
0
  0
LINE
  5
2E
330
1A
100
AcDbEntity
  8
Edge.Cuts
  6
CONTINUOUS
100
AcDbLine
 10
230.0213099999999997
 20
-39.9886459999999957
 30
0
 11
230.0230969999999786
 21
-39.9904329999999959
 31
0
  0
LINE
  5
2F
330
1A
100
AcDbEntity
  8
Edge.Cuts
  6
CONTINUOUS
100
AcDbLine
 10
230.0230969999999786
 20
-39.9904329999999959
 30
0
 11
230.0230969999999786
 21
-39.9941430000000011
 31
0
  0
LINE
  5
30
330
1A
100
AcDbEntity
  8
Edge.Cuts
  6
CONTINUOUS
100
AcDbLine
 10
230.0230969999999786
 20
-39.9941430000000011
 30
0
 11
230.0249999999999773
 21
-40.
 31
0
  0
LINE
  5
31
330
1A
100
AcDbEntity
  8
Edge.Cuts
  6
CONTINUOUS
100
AcDbLine
 10
230.0249999999999773
 20
-40.
 30
0
 11
230.0249999999999773
 21
-40.3014129999999966
 31
0
  0
LINE
  5
32
330
1A
100
AcDbEntity
  8
Edge.Cuts
  6
CONTINUOUS
100
AcDbLine
 10
230.0249999999999773
 20
-40.3014129999999966
 30
0
 11
230.0613969999999995
 21
-40.9031379999999984
 31
0
  0
LINE
  5
33
330
1A
100
AcDbEntity
  8
Edge.Cuts
  6
CONTINUOUS
100
AcDbLine
 10
230.0613969999999995
 20
-40.9031379999999984
 30
0
 11
230.1340599999999768
 21
-41.5015689999999964
 31
0
  0
LINE
  5
34
330
1A
100
AcDbEntity
  8
Edge.Cuts
  6
CONTINUOUS
100
AcDbLine
 10
230.1340599999999768
 20
-41.5015689999999964
 30
0
 11
230.2427219999999863
 21
-42.0945199999999957
 31
0
  0
LINE
  5
35
330
1A
100
AcDbEntity
  8
Edge.Cuts
  6
CONTINUOUS
100
AcDbLine
 10
230.2427219999999863
 20
-42.0945199999999957
 30
0
 11
230.3869880000000023
 21
-42.6798280000000005
 31
0
  0
LINE
  5
36
330
1A
100
AcDbEntity
  8
Edge.Cuts
  6
CONTINUOUS
100
AcDbLine
 10
230.3869880000000023
 20
-42.6798280000000005
 30
0
 11
230.5663299999999936
 21
-43.2553580000000011
 31
0
  0
LINE
  5
37
330
1A
100
AcDbEntity
  8
Edge.Cuts
  6
CONTINUOUS
100
AcDbLine
 10
230.5663299999999936
 20
-43.2553580000000011
 30
0
 11
230.7800949999999887
 21
-43.8190099999999987
 31
0
  0
LINE
  5
38
330
1A
100
AcDbEntity
  8
Edge.Cuts
  6
CONTINUOUS
100
AcDbLine
 10
230.7800949999999887
 20
-43.8190099999999987
 30
0
 11
231.0275019999999984
 21
-44.3687259999999952
 31
0
  0
LINE
  5
39
330
1A
100
AcDbEntity
  8
Edge.Cuts
  6
CONTINUOUS
100
AcDbLine
 10
231.0275019999999984
 20
-44.3687259999999952
 30
0
 11
231.3076489999999978
 21
-44.9025019999999984
 31
0
  0
LINE
  5
3A
330
1A
100
AcDbEntity
  8
Edge.Cuts
  6
CONTINUOUS
100
AcDbLine
 10
231.3076489999999978
 20
-44.9025019999999984
 30
0
 11
231.619513999999981
 21
-45.4183880000000002
 31
0
  0
LINE
  5
3B
330
1A
100
AcDbEntity
  8
Edge.Cuts
  6
CONTINUOUS
100
AcDbLine
 10
231.619513999999981
 20
-45.4183880000000002
 30
0
 11
231.9619579999999814
 21
-45.9145040000000009
 31
0
  0
LINE
  5
3C
330
1A
100
AcDbEntity
  8
Edge.Cuts
  6
CONTINUOUS
100
AcDbLine
 10
231.9619579999999814
 20
-45.9145040000000009
 30
0
 11
232.3337310000000002
 21
-46.3890379999999993
 31
0
  0
LINE
  5
3D
330
1A
100
AcDbEntity
  8
Edge.Cuts
  6
CONTINUOUS
100
AcDbLine
 10
232.3337310000000002
 20
-46.3890379999999993
 30
0
 11
232.7334789999999884
 21
-46.8402589999999961
 31
0
  0
LINE
  5
3E
330
1A
100
AcDbEntity
  8
Edge.Cuts
  6
CONTINUOUS
100
AcDbLine
 10
232.7334789999999884
 20
-46.8402589999999961
 30
0
 11
233.1597409999999968
 21
-47.2665209999999973
 31
0
  0
LINE
  5
3F
330
1A
100
AcDbEntity
  8
Edge.Cuts
  6
CONTINUOUS
100
AcDbLine
 10
233.1597409999999968
 20
-47.2665209999999973
 30
0
 11
233.6109620000000007
 21
-47.6662689999999998
 31
0
  0
LINE
  5
40
330
1A
100
AcDbEntity
  8
Edge.Cuts
  6
CONTINUOUS
100
AcDbLine
 10
233.6109620000000007
 20
-47.6662689999999998
 30
0
 11
234.0854959999999778
 21
-48.0380419999999972
 31
0
  0
LINE
  5
41
330
1A
100
AcDbEntity
  8
Edge.Cuts
  6
CONTINUOUS
100
AcDbLine
 10
234.0854959999999778
 20
-48.0380419999999972
 30
0
 11
234.5816119999999785
 21
-48.3804859999999977
 31
0
  0
LINE
  5
42
330
1A
100
AcDbEntity
  8
Edge.Cuts
  6
CONTINUOUS
100
AcDbLine
 10
234.5816119999999785
 20
-48.3804859999999977
 30
0
 11
235.0974980000000016
 21
-48.6923509999999951
 31
0
  0
LINE
  5
43
330
1A
100
AcDbEntity
  8
Edge.Cuts
  6
CONTINUOUS
100
AcDbLine
 10
235.0974980000000016
 20
-48.6923509999999951
 30
0
 11
235.6312739999999906
 21
-48.9724979999999945
 31
0
  0
LINE
  5
44
330
1A
100
AcDbEntity
  8
Edge.Cuts
  6
CONTINUOUS
100
AcDbLine
 10
235.6312739999999906
 20
-48.9724979999999945
 30
0
 11
236.18098999999998
 21
-49.2199049999999971
 31
0
  0
LINE
  5
45
330
1A
100
AcDbEntity
  8
Edge.Cuts
  6
CONTINUOUS
100
AcDbLine
 10
236.18098999999998
 20
-49.2199049999999971
 30
0
 11
236.7446419999999989
 21
-49.4336699999999993
 31
0
  0
LINE
  5
46
330
1A
100
AcDbEntity
  8
Edge.Cuts
  6
CONTINUOUS
100
AcDbLine
 10
236.7446419999999989
 20
-49.4336699999999993
 30
0
 11
237.3201719999999852
 21
-49.6130119999999977
 31
0
  0
LINE
  5
47
330
1A
100
AcDbEntity
  8
Edge.Cuts
  6
CONTINUOUS
100
AcDbLine
 10
237.3201719999999852
 20
-49.6130119999999977
 30
0
 11
237.905479999999983
 21
-49.7572779999999995
 31
0
  0
LINE
  5
48
330
1A
100
AcDbEntity
  8
Edge.Cuts
  6
CONTINUOUS
100
AcDbLine
 10
237.905479999999983
 20
-49.7572779999999995
 30
0
 11
238.4984309999999823
 21
-49.8659399999999948
 31
0
  0
LINE
  5
49
330
1A
100
AcDbEntity
  8
Edge.Cuts
  6
CONTINUOUS
100
AcDbLine
 10
238.4984309999999823
 20
-49.8659399999999948
 30
0
 11
239.0968619999999873
 21
-49.9386030000000005
 31
0
  0
LINE
  5
4A
330
1A
100
AcDbEntity
  8
Edge.Cuts
  6
CONTINUOUS
100
AcDbLine
 10
239.0968619999999873
 20
-49.9386030000000005
 30
0
 11
239.698586999999975
 21
-49.9749999999999943
 31
0
  0
LINE
  5
4B
330
1A
100
AcDbEntity
  8
Edge.Cuts
  6
CONTINUOUS
100
AcDbLine
 10
239.698586999999975
 20
-49.9749999999999943
 30
0
 11
240.
 21
-49.9749999999999943
 31
0
  0
LINE
  5
4C
330
1A
100
AcDbEntity
  8
Edge.Cuts
  6
CONTINUOUS
100
AcDbLine
 10
240.
 20
-49.9749999999999943
 30
0
 11
240.0058559999999943
 21
-49.9769030000000001
 31
0
  0
LINE
  5
4D
330
1A
100
AcDbEntity
  8
Edge.Cuts
  6
CONTINUOUS
100
AcDbLine
 10
240.0058559999999943
 20
-49.9769030000000001
 30
0
 11
240.0095669999999757
 21
-49.9769030000000001
 31
0
  0
LINE
  5
4E
330
1A
100
AcDbEntity
  8
Edge.Cuts
  6
CONTINUOUS
100
AcDbLine
 10
240.0095669999999757
 20
-49.9769030000000001
 30
0
 11
240.0113529999999855
 21
-49.9786889999999957
 31
0
  0
LINE
  5
4F
330
1A
100
AcDbEntity
  8
Edge.Cuts
  6
CONTINUOUS
100
AcDbLine
 10
240.0113529999999855
 20
-49.9786889999999957
 30
0
 11
240.014694999999989
 21
-49.9797749999999965
 31
0
  0
LINE
  5
50
330
1A
100
AcDbEntity
  8
Edge.Cuts
  6
CONTINUOUS
100
AcDbLine
 10
240.014694999999989
 20
-49.9797749999999965
 30
0
 11
240.020686999999981
 21
-49.9880229999999983
 31
0
  0
LINE
  5
51
330
1A
100
AcDbEntity
  8
Edge.Cuts
  6
CONTINUOUS
100
AcDbLine
 10
240.020686999999981
 20
-49.9880229999999983
 30
0
 11
240.0230969999999786
 21
-49.9904329999999959
 31
0
  0
LINE
  5
52
330
1A
100
AcDbEntity
  8
Edge.Cuts
  6
CONTINUOUS
100
AcDbLine
 10
240.0230969999999786
 20
-49.9904329999999959
 30
0
 11
240.0233449999999777
 21
-49.9916819999999973
 31
0
  0
LINE
  5
53
330
1A
100
AcDbEntity
  8
Edge.Cuts
  6
CONTINUOUS
100
AcDbLine
 10
240.0233449999999777
 20
-49.9916819999999973
 30
0
 11
240.023775999999998
 21
-49.9922749999999994
 31
0
  0
LINE
  5
54
330
1A
100
AcDbEntity
  8
Edge.Cuts
  6
CONTINUOUS
100
AcDbLine
 10
240.023775999999998
 20
-49.9922749999999994
 30
0
 11
240.023775999999998
 21
-49.9938459999999978
 31
0
  0
LINE
  5
55
330
1A
100
AcDbEntity
  8
Edge.Cuts
  6
CONTINUOUS
100
AcDbLine
 10
240.023775999999998
 20
-49.9938459999999978
 30
0
 11
240.0249999999999773
 21
-50.
 31
0
  0
LINE
  5
56
330
1A
100
AcDbEntity
  8
Edge.Cuts
  6
CONTINUOUS
100
AcDbLine
 10
240.0249999999999773
 20
-50.
 30
0
 11
240.0249999999999773
 21
-130.
 31
0
  0
LINE
  5
57
330
1A
100
AcDbEntity
  8
Edge.Cuts
  6
CONTINUOUS
100
AcDbLine
 10
240.0249999999999773
 20
-130.
 30
0
 11
240.023775999999998
 21
-130.0061529999999834
 31
0
  0
LINE
  5
58
330
1A
100
AcDbEntity
  8
Edge.Cuts
  6
CONTINUOUS
100
AcDbLine
 10
240.023775999999998
 20
-130.0061529999999834
 30
0
 11
240.023775999999998
 21
-130.0077249999999935
 31
0
  0
LINE
  5
59
330
1A
100
AcDbEntity
  8
Edge.Cuts
  6
CONTINUOUS
100
AcDbLine
 10
240.023775999999998
 20
-130.0077249999999935
 30
0
 11
240.0233449999999777
 21
-130.0083170000000052
 31
0
  0
LINE
  5
5A
330
1A
100
AcDbEntity
  8
Edge.Cuts
  6
CONTINUOUS
100
AcDbLine
 10
240.0233449999999777
 20
-130.0083170000000052
 30
0
 11
240.0230969999999786
 21
-130.0095670000000041
 31
0
  0
LINE
  5
5B
330
1A
100
AcDbEntity
  8
Edge.Cuts
  6
CONTINUOUS
100
AcDbLine
 10
240.0230969999999786
 20
-130.0095670000000041
 30
0
 11
240.020686999999981
 21
-130.0119760000000042
 31
0
  0
LINE
  5
5C
330
1A
100
AcDbEntity
  8
Edge.Cuts
  6
CONTINUOUS
100
AcDbLine
 10
240.020686999999981
 20
-130.0119760000000042
 30
0
 11
240.014694999999989
 21
-130.0202249999999822
 31
0
  0
LINE
  5
5D
330
1A
100
AcDbEntity
  8
Edge.Cuts
  6
CONTINUOUS
100
AcDbLine
 10
240.014694999999989
 20
-130.0202249999999822
 30
0
 11
240.0113529999999855
 21
-130.0213099999999997
 31
0
  0
LINE
  5
5E
330
1A
100
AcDbEntity
  8
Edge.Cuts
  6
CONTINUOUS
100
AcDbLine
 10
240.0113529999999855
 20
-130.0213099999999997
 30
0
 11
240.0095669999999757
 21
-130.023097000000007
 31
0
  0
LINE
  5
5F
330
1A
100
AcDbEntity
  8
Edge.Cuts
  6
CONTINUOUS
100
AcDbLine
 10
240.0095669999999757
 20
-130.023097000000007
 30
0
 11
240.0058559999999943
 21
-130.023097000000007
 31
0
  0
LINE
  5
60
330
1A
100
AcDbEntity
  8
Edge.Cuts
  6
CONTINUOUS
100
AcDbLine
 10
240.0058559999999943
 20
-130.023097000000007
 30
0
 11
240.
 21
-130.0250000000000057
 31
0
  0
LINE
  5
61
330
1A
100
AcDbEntity
  8
Edge.Cuts
  6
CONTINUOUS
100
AcDbLine
 10
240.
 20
-130.0250000000000057
 30
0
 11
239.698586999999975
 21
-130.0250000000000057
 31
0
  0
LINE
  5
62
330
1A
100
AcDbEntity
  8
Edge.Cuts
  6
CONTINUOUS
100
AcDbLine
 10
239.698586999999975
 20
-130.0250000000000057
 30
0
 11
239.0968619999999873
 21
-130.0613969999999995
 31
0
  0
LINE
  5
63
330
1A
100
AcDbEntity
  8
Edge.Cuts
  6
CONTINUOUS
100
AcDbLine
 10
239.0968619999999873
 20
-130.0613969999999995
 30
0
 11
238.4984309999999823
 21
-130.1340600000000052
 31
0
  0
LINE
  5
64
330
1A
100
AcDbEntity
  8
Edge.Cuts
  6
CONTINUOUS
100
AcDbLine
 10
238.4984309999999823
 20
-130.1340600000000052
 30
0
 11
237.905479999999983
 21
-130.2427219999999863
 31
0
  0
LINE
  5
65
330
1A
100
AcDbEntity
  8
Edge.Cuts
  6
CONTINUOUS
100
AcDbLine
 10
237.905479999999983
 20
-130.2427219999999863
 30
0
 11
237.3201719999999852
 21
-130.3869880000000023
 31
0
  0
LINE
  5
66
330
1A
100
AcDbEntity
  8
Edge.Cuts
  6
CONTINUOUS
100
AcDbLine
 10
237.3201719999999852
 20
-130.3869880000000023
 30
0
 11
236.7446419999999989
 21
-130.5663299999999936
 31
0
  0
LINE
  5
67
330
1A
100
AcDbEntity
  8
Edge.Cuts
  6
CONTINUOUS
100
AcDbLine
 10
236.7446419999999989
 20
-130.5663299999999936
 30
0
 11
236.18098999999998
 21
-130.7800949999999887
 31
0
  0
LINE
  5
68
330
1A
100
AcDbEntity
  8
Edge.Cuts
  6
CONTINUOUS
100
AcDbLine
 10
236.18098999999998
 20
-130.7800949999999887
 30
0
 11
235.6312739999999906
 21
-131.0275019999999984
 31
0
  0
LINE
  5
69
330
1A
100
AcDbEntity
  8
Edge.Cuts
  6
CONTINUOUS
100
AcDbLine
 10
235.6312739999999906
 20
-131.0275019999999984
 30
0
 11
235.0974980000000016
 21
-131.3076489999999978
 31
0
  0
LINE
  5
6A
330
1A
100
AcDbEntity
  8
Edge.Cuts
  6
CONTINUOUS
100
AcDbLine
 10
235.0974980000000016
 20
-131.3076489999999978
 30
0
 11
234.5816119999999785
 21
-131.619513999999981
 31
0
  0
LINE
  5
6B
330
1A
100
AcDbEntity
  8
Edge.Cuts
  6
CONTINUOUS
100
AcDbLine
 10
234.5816119999999785
 20
-131.619513999999981
 30
0
 11
234.0854959999999778
 21
-131.9619579999999814
 31
0
  0
LINE
  5
6C
330
1A
100
AcDbEntity
  8
Edge.Cuts
  6
CONTINUOUS
100
AcDbLine
 10
234.0854959999999778
 20
-131.9619579999999814
 30
0
 11
233.6109620000000007
 21
-132.3337310000000002
 31
0
  0
LINE
  5
6D
330
1A
100
AcDbEntity
  8
Edge.Cuts
  6
CONTINUOUS
100
AcDbLine
 10
233.6109620000000007
 20
-132.3337310000000002
 30
0
 11
233.1597409999999968
 21
-132.7334789999999884
 31
0
  0
LINE
  5
6E
330
1A
100
AcDbEntity
  8
Edge.Cuts
  6
CONTINUOUS
100
AcDbLine
 10
233.1597409999999968
 20
-132.7334789999999884
 30
0
 11
232.7334789999999884
 21
-133.1597409999999968
 31
0
  0
LINE
  5
6F
330
1A
100
AcDbEntity
  8
Edge.Cuts
  6
CONTINUOUS
100
AcDbLine
 10
232.7334789999999884
 20
-133.1597409999999968
 30
0
 11
232.3337310000000002
 21
-133.6109620000000007
 31
0
  0
LINE
  5
70
330
1A
100
AcDbEntity
  8
Edge.Cuts
  6
CONTINUOUS
100
AcDbLine
 10
232.3337310000000002
 20
-133.6109620000000007
 30
0
 11
231.9619579999999814
 21
-134.0854960000000062
 31
0
  0
LINE
  5
71
330
1A
100
AcDbEntity
  8
Edge.Cuts
  6
CONTINUOUS
100
AcDbLine
 10
231.9619579999999814
 20
-134.0854960000000062
 30
0
 11
231.619513999999981
 21
-134.5816120000000069
 31
0
  0
LINE
  5
72
330
1A
100
AcDbEntity
  8
Edge.Cuts
  6
CONTINUOUS
100
AcDbLine
 10
231.619513999999981
 20
-134.5816120000000069
 30
0
 11
231.3076489999999978
 21
-135.0974980000000016
 31
0
  0
LINE
  5
73
330
1A
100
AcDbEntity
  8
Edge.Cuts
  6
CONTINUOUS
100
AcDbLine
 10
231.3076489999999978
 20
-135.0974980000000016
 30
0
 11
231.0275019999999984
 21
-135.6312739999999906
 31
0
  0
LINE
  5
74
330
1A
100
AcDbEntity
  8
Edge.Cuts
  6
CONTINUOUS
100
AcDbLine
 10
231.0275019999999984
 20
-135.6312739999999906
 30
0
 11
230.7800949999999887
 21
-136.18098999999998
 31
0
  0
LINE
  5
75
330
1A
100
AcDbEntity
  8
Edge.Cuts
  6
CONTINUOUS
100
AcDbLine
 10
230.7800949999999887
 20
-136.18098999999998
 30
0
 11
230.5663299999999936
 21
-136.7446419999999989
 31
0
  0
LINE
  5
76
330
1A
100
AcDbEntity
  8
Edge.Cuts
  6
CONTINUOUS
100
AcDbLine
 10
230.5663299999999936
 20
-136.7446419999999989
 30
0
 11
230.3869880000000023
 21
-137.3201719999999852
 31
0
  0
LINE
  5
77
330
1A
100
AcDbEntity
  8
Edge.Cuts
  6
CONTINUOUS
100
AcDbLine
 10
230.3869880000000023
 20
-137.3201719999999852
 30
0
 11
230.2427219999999863
 21
-137.905479999999983
 31
0
  0
LINE
  5
78
330
1A
100
AcDbEntity
  8
Edge.Cuts
  6
CONTINUOUS
100
AcDbLine
 10
230.2427219999999863
 20
-137.905479999999983
 30
0
 11
230.1340599999999768
 21
-138.4984309999999823
 31
0
  0
LINE
  5
79
330
1A
100
AcDbEntity
  8
Edge.Cuts
  6
CONTINUOUS
100
AcDbLine
 10
230.1340599999999768
 20
-138.4984309999999823
 30
0
 11
230.0613969999999995
 21
-139.0968619999999873
 31
0
  0
LINE
  5
7A
330
1A
100
AcDbEntity
  8
Edge.Cuts
  6
CONTINUOUS
100
AcDbLine
 10
230.0613969999999995
 20
-139.0968619999999873
 30
0
 11
230.0249999999999773
 21
-139.6985870000000034
 31
0
  0
LINE
  5
7B
330
1A
100
AcDbEntity
  8
Edge.Cuts
  6
CONTINUOUS
100
AcDbLine
 10
230.0249999999999773
 20
-139.6985870000000034
 30
0
 11
230.0249999999999773
 21
-140.
 31
0
  0
LINE
  5
7C
330
1A
100
AcDbEntity
  8
Edge.Cuts
  6
CONTINUOUS
100
AcDbLine
 10
230.0249999999999773
 20
-140.
 30
0
 11
230.0230969999999786
 21
-140.0058559999999943
 31
0
  0
LINE
  5
7D
330
1A
100
AcDbEntity
  8
Edge.Cuts
  6
CONTINUOUS
100
AcDbLine
 10
230.0230969999999786
 20
-140.0058559999999943
 30
0
 11
230.0230969999999786
 21
-140.0095670000000041
 31
0
  0
LINE
  5
7E
330
1A
100
AcDbEntity
  8
Edge.Cuts
  6
CONTINUOUS
100
AcDbLine
 10
230.0230969999999786
 20
-140.0095670000000041
 30
0
 11
230.0213099999999997
 21
-140.0113529999999855
 31
0
  0
LINE
  5
7F
330
1A
100
AcDbEntity
  8
Edge.Cuts
  6
CONTINUOUS
100
AcDbLine
 10
230.0213099999999997
 20
-140.0113529999999855
 30
0
 11
230.0202249999999822
 21
-140.014694999999989
 31
0
  0
LINE
  5
80
330
1A
100
AcDbEntity
  8
Edge.Cuts
  6
CONTINUOUS
100
AcDbLine
 10
230.0202249999999822
 20
-140.014694999999989
 30
0
 11
230.0119759999999758
 21
-140.020686999999981
 31
0
  0
LINE
  5
81
330
1A
100
AcDbEntity
  8
Edge.Cuts
  6
CONTINUOUS
100
AcDbLine
 10
230.0119759999999758
 20
-140.020686999999981
 30
0
 11
230.0095669999999757
 21
-140.023097000000007
 31
0
  0
LINE
  5
82
330
1A
100
AcDbEntity
  8
Edge.Cuts
  6
CONTINUOUS
100
AcDbLine
 10
230.0095669999999757
 20
-140.023097000000007
 30
0
 11
230.0083169999999768
 21
-140.0233450000000062
 31
0
  0
LINE
  5
83
330
1A
100
AcDbEntity
  8
Edge.Cuts
  6
CONTINUOUS
100
AcDbLine
 10
230.0083169999999768
 20
-140.0233450000000062
 30
0
 11
230.0077249999999935
 21
-140.023775999999998
 31
0
  0
LINE
  5
84
330
1A
100
AcDbEntity
  8
Edge.Cuts
  6
CONTINUOUS
100
AcDbLine
 10
230.0077249999999935
 20
-140.023775999999998
 30
0
 11
230.0061529999999834
 21
-140.023775999999998
 31
0
  0
LINE
  5
85
330
1A
100
AcDbEntity
  8
Edge.Cuts
  6
CONTINUOUS
100
AcDbLine
 10
230.0061529999999834
 20
-140.023775999999998
 30
0
 11
230.
 21
-140.0250000000000057
 31
0
  0
LINE
  5
86
330
1A
100
AcDbEntity
  8
Edge.Cuts
  6
CONTINUOUS
100
AcDbLine
 10
230.
 20
-140.0250000000000057
 30
0
 11
100.
 21
-140.0250000000000057
 31
0
  0
LINE
  5
87
330
1A
100
AcDbEntity
  8
Edge.Cuts
  6
CONTINUOUS
100
AcDbLine
 10
100.
 20
-140.0250000000000057
 30
0
 11
99.9938470000000024
 21
-140.023775999999998
 31
0
  0
LINE
  5
88
330
1A
100
AcDbEntity
  8
Edge.Cuts
  6
CONTINUOUS
100
AcDbLine
 10
99.9938470000000024
 20
-140.023775999999998
 30
0
 11
99.9922749999999922
 21
-140.023775999999998
 31
0
  0
LINE
  5
89
330
1A
100
AcDbEntity
  8
Edge.Cuts
  6
CONTINUOUS
100
AcDbLine
 10
99.9922749999999922
 20
-140.023775999999998
 30
0
 11
99.9916819999999973
 21
-140.0233450000000062
 31
0
  0
LINE
  5
8A
330
1A
100
AcDbEntity
  8
Edge.Cuts
  6
CONTINUOUS
100
AcDbLine
 10
99.9916819999999973
 20
-140.0233450000000062
 30
0
 11
99.9904329999999959
 21
-140.023097000000007
 31
0
  0
LINE
  5
8B
330
1A
100
AcDbEntity
  8
Edge.Cuts
  6
CONTINUOUS
100
AcDbLine
 10
99.9904329999999959
 20
-140.023097000000007
 30
0
 11
99.9880229999999983
 21
-140.020686999999981
 31
0
  0
LINE
  5
8C
330
1A
100
AcDbEntity
  8
Edge.Cuts
  6
CONTINUOUS
100
AcDbLine
 10
99.9880229999999983
 20
-140.020686999999981
 30
0
 11
99.9797749999999894
 21
-140.014694999999989
 31
0
  0
LINE
  5
8D
330
1A
100
AcDbEntity
  8
Edge.Cuts
  6
CONTINUOUS
100
AcDbLine
 10
99.9797749999999894
 20
-140.014694999999989
 30
0
 11
99.9786889999999886
 21
-140.0113529999999855
 31
0
  0
LINE
  5
8E
330
1A
100
AcDbEntity
  8
Edge.Cuts
  6
CONTINUOUS
100
AcDbLine
 10
99.9786889999999886
 20
-140.0113529999999855
 30
0
 11
99.976902999999993
 21
-140.0095670000000041
 31
0
  0
LINE
  5
8F
330
1A
100
AcDbEntity
  8
Edge.Cuts
  6
CONTINUOUS
100
AcDbLine
 10
99.976902999999993
 20
-140.0095670000000041
 30
0
 11
99.976902999999993
 21
-140.0058559999999943
 31
0
  0
LINE
  5
90
330
1A
100
AcDbEntity
  8
Edge.Cuts
  6
CONTINUOUS
100
AcDbLine
 10
99.976902999999993
 20
-140.0058559999999943
 30
0
 11
99.9749999999999943
 21
-140.
 31
0
  0
LINE
  5
91
330
1A
100
AcDbEntity
  8
Edge.Cuts
  6
CONTINUOUS
100
AcDbLine
 10
99.9749999999999943
 20
-140.
 30
0
 11
99.9749999999999943
 21
-139.6985870000000034
 31
0
  0
LINE
  5
92
330
1A
100
AcDbEntity
  8
Edge.Cuts
  6
CONTINUOUS
100
AcDbLine
 10
99.9749999999999943
 20
-139.6985870000000034
 30
0
 11
99.9386030000000005
 21
-139.0968619999999873
 31
0
  0
LINE
  5
93
330
1A
100
AcDbEntity
  8
Edge.Cuts
  6
CONTINUOUS
100
AcDbLine
 10
99.9386030000000005
 20
-139.0968619999999873
 30
0
 11
99.8659399999999948
 21
-138.4984309999999823
 31
0
  0
LINE
  5
94
330
1A
100
AcDbEntity
  8
Edge.Cuts
  6
CONTINUOUS
100
AcDbLine
 10
99.8659399999999948
 20
-138.4984309999999823
 30
0
 11
99.7572779999999995
 21
-137.905479999999983
 31
0
  0
LINE
  5
95
330
1A
100
AcDbEntity
  8
Edge.Cuts
  6
CONTINUOUS
100
AcDbLine
 10
99.7572779999999995
 20
-137.905479999999983
 30
0
 11
99.6130119999999977
 21
-137.3201719999999852
 31
0
  0
LINE
  5
96
330
1A
100
AcDbEntity
  8
Edge.Cuts
  6
CONTINUOUS
100
AcDbLine
 10
99.6130119999999977
 20
-137.3201719999999852
 30
0
 11
99.4336699999999922
 21
-136.7446419999999989
 31
0
  0
LINE
  5
97
330
1A
100
AcDbEntity
  8
Edge.Cuts
  6
CONTINUOUS
100
AcDbLine
 10
99.4336699999999922
 20
-136.7446419999999989
 30
0
 11
99.2199049999999971
 21
-136.18098999999998
 31
0
  0
LINE
  5
98
330
1A
100
AcDbEntity
  8
Edge.Cuts
  6
CONTINUOUS
100
AcDbLine
 10
99.2199049999999971
 20
-136.18098999999998
 30
0
 11
98.9724980000000016
 21
-135.6312739999999906
 31
0
  0
LINE
  5
99
330
1A
100
AcDbEntity
  8
Edge.Cuts
  6
CONTINUOUS
100
AcDbLine
 10
98.9724980000000016
 20
-135.6312739999999906
 30
0
 11
98.6923510000000022
 21
-135.0974980000000016
 31
0
  0
LINE
  5
9A
330
1A
100
AcDbEntity
  8
Edge.Cuts
  6
CONTINUOUS
100
AcDbLine
 10
98.6923510000000022
 20
-135.0974980000000016
 30
0
 11
98.3804859999999906
 21
-134.5816120000000069
 31
0
  0
LINE
  5
9B
330
1A
100
AcDbEntity
  8
Edge.Cuts
  6
CONTINUOUS
100
AcDbLine
 10
98.3804859999999906
 20
-134.5816120000000069
 30
0
 11
98.0380419999999901
 21
-134.0854960000000062
 31
0
  0
LINE
  5
9C
330
1A
100
AcDbEntity
  8
Edge.Cuts
  6
CONTINUOUS
100
AcDbLine
 10
98.0380419999999901
 20
-134.0854960000000062
 30
0
 11
97.6662689999999998
 21
-133.6109620000000007
 31
0
  0
LINE
  5
9D
330
1A
100
AcDbEntity
  8
Edge.Cuts
  6
CONTINUOUS
100
AcDbLine
 10
97.6662689999999998
 20
-133.6109620000000007
 30
0
 11
97.2665209999999973
 21
-133.1597409999999968
 31
0
  0
LINE
  5
9E
330
1A
100
AcDbEntity
  8
Edge.Cuts
  6
CONTINUOUS
100
AcDbLine
 10
97.2665209999999973
 20
-133.1597409999999968
 30
0
 11
96.840258999999989
 21
-132.7334789999999884
 31
0
  0
LINE
  5
9F
330
1A
100
AcDbEntity
  8
Edge.Cuts
  6
CONTINUOUS
100
AcDbLine
 10
96.840258999999989
 20
-132.7334789999999884
 30
0
 11
96.3890379999999993
 21
-132.3337310000000002
 31
0
  0
LINE
  5
A0
330
1A
100
AcDbEntity
  8
Edge.Cuts
  6
CONTINUOUS
100
AcDbLine
 10
96.3890379999999993
 20
-132.3337310000000002
 30
0
 11
95.9145039999999938
 21
-131.9619579999999814
 31
0
  0
LINE
  5
A1
330
1A
100
AcDbEntity
  8
Edge.Cuts
  6
CONTINUOUS
100
AcDbLine
 10
95.9145039999999938
 20
-131.9619579999999814
 30
0
 11
95.4183879999999931
 21
-131.619513999999981
 31
0
  0
LINE
  5
A2
330
1A
100
AcDbEntity
  8
Edge.Cuts
  6
CONTINUOUS
100
AcDbLine
 10
95.4183879999999931
 20
-131.619513999999981
 30
0
 11
94.9025019999999984
 21
-131.3076489999999978
 31
0
  0
LINE
  5
A3
330
1A
100
AcDbEntity
  8
Edge.Cuts
  6
CONTINUOUS
100
AcDbLine
 10
94.9025019999999984
 20
-131.3076489999999978
 30
0
 11
94.3687259999999952
 21
-131.0275019999999984
 31
0
  0
LINE
  5
A4
330
1A
100
AcDbEntity
  8
Edge.Cuts
  6
CONTINUOUS
100
AcDbLine
 10
94.3687259999999952
 20
-131.0275019999999984
 30
0
 11
93.8190099999999916
 21
-130.7800949999999887
 31
0
  0
LINE
  5
A5
330
1A
100
AcDbEntity
  8
Edge.Cuts
  6
CONTINUOUS
100
AcDbLine
 10
93.8190099999999916
 20
-130.7800949999999887
 30
0
 11
93.2553580000000011
 21
-130.5663299999999936
 31
0
  0
LINE
  5
A6
330
1A
100
AcDbEntity
  8
Edge.Cuts
  6
CONTINUOUS
100
AcDbLine
 10
93.2553580000000011
 20
-130.5663299999999936
 30
0
 11
92.6798280000000005
 21
-130.3869880000000023
 31
0
  0
LINE
  5
A7
330
1A
100
AcDbEntity
  8
Edge.Cuts
  6
CONTINUOUS
100
AcDbLine
 10
92.6798280000000005
 20
-130.3869880000000023
 30
0
 11
92.0945200000000028
 21
-130.2427219999999863
 31
0
  0
LINE
  5
A8
330
1A
100
AcDbEntity
  8
Edge.Cuts
  6
CONTINUOUS
100
AcDbLine
 10
92.0945200000000028
 20
-130.2427219999999863
 30
0
 11
91.5015689999999893
 21
-130.1340600000000052
 31
0
  0
LINE
  5
A9
330
1A
100
AcDbEntity
  8
Edge.Cuts
  6
CONTINUOUS
100
AcDbLine
 10
91.5015689999999893
 20
-130.1340600000000052
 30
0
 11
90.9031379999999984
 21
-130.0613969999999995
 31
0
  0
LINE
  5
AA
330
1A
100
AcDbEntity
  8
Edge.Cuts
  6
CONTINUOUS
100
AcDbLine
 10
90.9031379999999984
 20
-130.0613969999999995
 30
0
 11
90.3014129999999966
 21
-130.0250000000000057
 31
0
  0
LINE
  5
AB
330
1A
100
AcDbEntity
  8
Edge.Cuts
  6
CONTINUOUS
100
AcDbLine
 10
90.3014129999999966
 20
-130.0250000000000057
 30
0
 11
90.
 21
-130.0250000000000057
 31
0
  0
LINE
  5
AC
330
1A
100
AcDbEntity
  8
Edge.Cuts
  6
CONTINUOUS
100
AcDbLine
 10
90.
 20
-130.0250000000000057
 30
0
 11
89.9941439999999915
 21
-130.023097000000007
 31
0
  0
LINE
  5
AD
330
1A
100
AcDbEntity
  8
Edge.Cuts
  6
CONTINUOUS
100
AcDbLine
 10
89.9941439999999915
 20
-130.023097000000007
 30
0
 11
89.9904329999999959
 21
-130.023097000000007
 31
0
  0
LINE
  5
AE
330
1A
100
AcDbEntity
  8
Edge.Cuts
  6
CONTINUOUS
100
AcDbLine
 10
89.9904329999999959
 20
-130.023097000000007
 30
0
 11
89.9886460000000028
 21
-130.0213099999999997
 31
0
  0
LINE
  5
AF
330
1A
100
AcDbEntity
  8
Edge.Cuts
  6
CONTINUOUS
100
AcDbLine
 10
89.9886460000000028
 20
-130.0213099999999997
 30
0
 11
89.9853049999999968
 21
-130.0202249999999822
 31
0
  0
LINE
  5
B0
330
1A
100
AcDbEntity
  8
Edge.Cuts
  6
CONTINUOUS
100
AcDbLine
 10
89.9853049999999968
 20
-130.0202249999999822
 30
0
 11
89.9793119999999931
 21
-130.0119760000000042
 31
0
  0
LINE
  5
B1
330
1A
100
AcDbEntity
  8
Edge.Cuts
  6
CONTINUOUS
100
AcDbLine
 10
89.9793119999999931
 20
-130.0119760000000042
 30
0
 11
89.976902999999993
 21
-130.0095670000000041
 31
0
  0
LINE
  5
B2
330
1A
100
AcDbEntity
  8
Edge.Cuts
  6
CONTINUOUS
100
AcDbLine
 10
89.976902999999993
 20
-130.0095670000000041
 30
0
 11
89.9766539999999964
 21
-130.0083170000000052
 31
0
  0
LINE
  5
B3
330
1A
100
AcDbEntity
  8
Edge.Cuts
  6
CONTINUOUS
100
AcDbLine
 10
89.9766539999999964
 20
-130.0083170000000052
 30
0
 11
89.976224000000002
 21
-130.0077249999999935
 31
0
  0
LINE
  5
B4
330
1A
100
AcDbEntity
  8
Edge.Cuts
  6
CONTINUOUS
100
AcDbLine
 10
89.976224000000002
 20
-130.0077249999999935
 30
0
 11
89.976224000000002
 21
-130.0061529999999834
 31
0
  0
LINE
  5
B5
330
1A
100
AcDbEntity
  8
Edge.Cuts
  6
CONTINUOUS
100
AcDbLine
 10
89.976224000000002
 20
-130.0061529999999834
 30
0
 11
89.9749999999999943
 21
-130.
 31
0
  0
LINE
  5
B6
330
1A
100
AcDbEntity
  8
Edge.Cuts
  6
CONTINUOUS
100
AcDbLine
 10
89.9749999999999943
 20
-130.
 30
0
 11
89.9749999999999943
 21
-50.
 31
0
  0
LINE
  5
B7
330
1A
100
AcDbEntity
  8
Edge.Cuts
  6
CONTINUOUS
100
AcDbLine
 10
89.9749999999999943
 20
-50.
 30
0
 11
89.976224000000002
 21
-49.9938459999999978
 31
0
  0
LINE
  5
B8
330
1A
100
AcDbEntity
  8
Edge.Cuts
  6
CONTINUOUS
100
AcDbLine
 10
89.976224000000002
 20
-49.9938459999999978
 30
0
 11
89.976224000000002
 21
-49.9922749999999994
 31
0
  0
LINE
  5
B9
330
1A
100
AcDbEntity
  8
Edge.Cuts
  6
CONTINUOUS
100
AcDbLine
 10
89.976224000000002
 20
-49.9922749999999994
 30
0
 11
89.9766539999999964
 21
-49.9916819999999973
 31
0
  0
LINE
  5
BA
330
1A
100
AcDbEntity
  8
Edge.Cuts
  6
CONTINUOUS
100
AcDbLine
 10
89.9766539999999964
 20
-49.9916819999999973
 30
0
 11
89.976902999999993
 21
-49.9904329999999959
 31
0
  0
LINE
  5
BB
330
1A
100
AcDbEntity
  8
Edge.Cuts
  6
CONTINUOUS
100
AcDbLine
 10
89.976902999999993
 20
-49.9904329999999959
 30
0
 11
89.9793119999999931
 21
-49.9880229999999983
 31
0
  0
LINE
  5
BC
330
1A
100
AcDbEntity
  8
Edge.Cuts
  6
CONTINUOUS
100
AcDbLine
 10
89.9793119999999931
 20
-49.9880229999999983
 30
0
 11
89.9853049999999968
 21
-49.9797749999999965
 31
0
  0
LINE
  5
BD
330
1A
100
AcDbEntity
  8
Edge.Cuts
  6
CONTINUOUS
100
AcDbLine
 10
89.9853049999999968
 20
-49.9797749999999965
 30
0
 11
89.9886460000000028
 21
-49.9786889999999957
 31
0
  0
LINE
  5
BE
330
1A
100
AcDbEntity
  8
Edge.Cuts
  6
CONTINUOUS
100
AcDbLine
 10
89.9886460000000028
 20
-49.9786889999999957
 30
0
 11
89.9904329999999959
 21
-49.9769030000000001
 31
0
  0
LINE
  5
BF
330
1A
100
AcDbEntity
  8
Edge.Cuts
  6
CONTINUOUS
100
AcDbLine
 10
89.9904329999999959
 20
-49.9769030000000001
 30
0
 11
89.9941439999999915
 21
-49.9769030000000001
 31
0
  0
LINE
  5
C0
330
1A
100
AcDbEntity
  8
Edge.Cuts
  6
CONTINUOUS
100
AcDbLine
 10
89.9941439999999915
 20
-49.9769030000000001
 30
0
 11
90.
 21
-49.9749999999999943
 31
0
  0
LINE
  5
C1
330
1A
100
AcDbEntity
  8
Edge.Cuts
  6
CONTINUOUS
100
AcDbLine
 10
90.
 20
-49.9749999999999943
 30
0
 11
90.3014129999999966
 21
-49.9749999999999943
 31
0
  0
LINE
  5
C2
330
1A
100
AcDbEntity
  8
Edge.Cuts
  6
CONTINUOUS
100
AcDbLine
 10
90.3014129999999966
 20
-49.9749999999999943
 30
0
 11
90.9031379999999984
 21
-49.9386030000000005
 31
0
  0
LINE
  5
C3
330
1A
100
AcDbEntity
  8
Edge.Cuts
  6
CONTINUOUS
100
AcDbLine
 10
90.9031379999999984
 20
-49.9386030000000005
 30
0
 11
91.5015689999999893
 21
-49.8659399999999948
 31
0
  0
LINE
  5
C4
330
1A
100
AcDbEntity
  8
Edge.Cuts
  6
CONTINUOUS
100
AcDbLine
 10
91.5015689999999893
 20
-49.8659399999999948
 30
0
 11
92.0945200000000028
 21
-49.7572779999999995
 31
0
  0
LINE
  5
C5
330
1A
100
AcDbEntity
  8
Edge.Cuts
  6
CONTINUOUS
100
AcDbLine
 10
92.0945200000000028
 20
-49.7572779999999995
 30
0
 11
92.6798280000000005
 21
-49.6130119999999977
 31
0
  0
LINE
  5
C6
330
1A
100
AcDbEntity
  8
Edge.Cuts
  6
CONTINUOUS
100
AcDbLine
 10
92.6798280000000005
 20
-49.6130119999999977
 30
0
 11
93.2553580000000011
 21
-49.4336699999999993
 31
0
  0
LINE
  5
C7
330
1A
100
AcDbEntity
  8
Edge.Cuts
  6
CONTINUOUS
100
AcDbLine
 10
93.2553580000000011
 20
-49.4336699999999993
 30
0
 11
93.8190099999999916
 21
-49.2199049999999971
 31
0
  0
LINE
  5
C8
330
1A
100
AcDbEntity
  8
Edge.Cuts
  6
CONTINUOUS
100
AcDbLine
 10
93.8190099999999916
 20
-49.2199049999999971
 30
0
 11
94.3687259999999952
 21
-48.9724979999999945
 31
0
  0
LINE
  5
C9
330
1A
100
AcDbEntity
  8
Edge.Cuts
  6
CONTINUOUS
100
AcDbLine
 10
94.3687259999999952
 20
-48.9724979999999945
 30
0
 11
94.9025019999999984
 21
-48.6923509999999951
 31
0
  0
LINE
  5
CA
330
1A
100
AcDbEntity
  8
Edge.Cuts
  6
CONTINUOUS
100
AcDbLine
 10
94.9025019999999984
 20
-48.6923509999999951
 30
0
 11
95.4183879999999931
 21
-48.3804859999999977
 31
0
  0
LINE
  5
CB
330
1A
100
AcDbEntity
  8
Edge.Cuts
  6
CONTINUOUS
100
AcDbLine
 10
95.4183879999999931
 20
-48.3804859999999977
 30
0
 11
95.9145039999999938
 21
-48.0380419999999972
 31
0
  0
LINE
  5
CC
330
1A
100
AcDbEntity
  8
Edge.Cuts
  6
CONTINUOUS
100
AcDbLine
 10
95.9145039999999938
 20
-48.0380419999999972
 30
0
 11
96.3890379999999993
 21
-47.6662689999999998
 31
0
  0
LINE
  5
CD
330
1A
100
AcDbEntity
  8
Edge.Cuts
  6
CONTINUOUS
100
AcDbLine
 10
96.3890379999999993
 20
-47.6662689999999998
 30
0
 11
96.840258999999989
 21
-47.2665209999999973
 31
0
  0
LINE
  5
CE
330
1A
100
AcDbEntity
  8
Edge.Cuts
  6
CONTINUOUS
100
AcDbLine
 10
96.840258999999989
 20
-47.2665209999999973
 30
0
 11
97.2665209999999973
 21
-46.8402589999999961
 31
0
  0
LINE
  5
CF
330
1A
100
AcDbEntity
  8
Edge.Cuts
  6
CONTINUOUS
100
AcDbLine
 10
97.2665209999999973
 20
-46.8402589999999961
 30
0
 11
97.6662689999999998
 21
-46.3890379999999993
 31
0
  0
LINE
  5
D0
330
1A
100
AcDbEntity
  8
Edge.Cuts
  6
CONTINUOUS
100
AcDbLine
 10
97.6662689999999998
 20
-46.3890379999999993
 30
0
 11
98.0380419999999901
 21
-45.9145040000000009
 31
0
  0
LINE
  5
D1
330
1A
100
AcDbEntity
  8
Edge.Cuts
  6
CONTINUOUS
100
AcDbLine
 10
98.0380419999999901
 20
-45.9145040000000009
 30
0
 11
98.3804859999999906
 21
-45.4183880000000002
 31
0
  0
LINE
  5
D2
330
1A
100
AcDbEntity
  8
Edge.Cuts
  6
CONTINUOUS
100
AcDbLine
 10
98.3804859999999906
 20
-45.4183880000000002
 30
0
 11
98.6923510000000022
 21
-44.9025019999999984
 31
0
  0
LINE
  5
D3
330
1A
100
AcDbEntity
  8
Edge.Cuts
  6
CONTINUOUS
100
AcDbLine
 10
98.6923510000000022
 20
-44.9025019999999984
 30
0
 11
98.9724980000000016
 21
-44.3687259999999952
 31
0
  0
LINE
  5
D4
330
1A
100
AcDbEntity
  8
Edge.Cuts
  6
CONTINUOUS
100
AcDbLine
 10
98.9724980000000016
 20
-44.3687259999999952
 30
0
 11
99.2199049999999971
 21
-43.8190099999999987
 31
0
  0
LINE
  5
D5
330
1A
100
AcDbEntity
  8
Edge.Cuts
  6
CONTINUOUS
100
AcDbLine
 10
99.2199049999999971
 20
-43.8190099999999987
 30
0
 11
99.4336699999999922
 21
-43.2553580000000011
 31
0
  0
LINE
  5
D6
330
1A
100
AcDbEntity
  8
Edge.Cuts
  6
CONTINUOUS
100
AcDbLine
 10
99.4336699999999922
 20
-43.2553580000000011
 30
0
 11
99.6130119999999977
 21
-42.6798280000000005
 31
0
  0
LINE
  5
D7
330
1A
100
AcDbEntity
  8
Edge.Cuts
  6
CONTINUOUS
100
AcDbLine
 10
99.6130119999999977
 20
-42.6798280000000005
 30
0
 11
99.7572779999999995
 21
-42.0945199999999957
 31
0
  0
LINE
  5
D8
330
1A
100
AcDbEntity
  8
Edge.Cuts
  6
CONTINUOUS
100
AcDbLine
 10
99.7572779999999995
 20
-42.0945199999999957
 30
0
 11
99.8659399999999948
 21
-41.5015689999999964
 31
0
  0
LINE
  5
D9
330
1A
100
AcDbEntity
  8
Edge.Cuts
  6
CONTINUOUS
100
AcDbLine
 10
99.8659399999999948
 20
-41.5015689999999964
 30
0
 11
99.9386030000000005
 21
-40.9031379999999984
 31
0
  0
LINE
  5
DA
330
1A
100
AcDbEntity
  8
Edge.Cuts
  6
CONTINUOUS
100
AcDbLine
 10
99.9386030000000005
 20
-40.9031379999999984
 30
0
 11
99.9749999999999943
 21
-40.3014129999999966
 31
0
  0
LINE
  5
DB
330
1A
100
AcDbEntity
  8
Edge.Cuts
  6
CONTINUOUS
100
AcDbLine
 10
99.9749999999999943
 20
-40.3014129999999966
 30
0
 11
99.9749999999999943
 21
-40.
 31
0
  0
LINE
  5
DC
330
1A
100
AcDbEntity
  8
Edge.Cuts
  6
CONTINUOUS
100
AcDbLine
 10
99.9749999999999943
 20
-40.
 30
0
 11
99.976902999999993
 21
-39.9941430000000011
 31
0
  0
LINE
  5
DD
330
1A
100
AcDbEntity
  8
Edge.Cuts
  6
CONTINUOUS
100
AcDbLine
 10
99.976902999999993
 20
-39.9941430000000011
 30
0
 11
99.976902999999993
 21
-39.9904329999999959
 31
0
  0
LINE
  5
DE
330
1A
100
AcDbEntity
  8
Edge.Cuts
  6
CONTINUOUS
100
AcDbLine
 10
99.976902999999993
 20
-39.9904329999999959
 30
0
 11
99.9786889999999886
 21
-39.9886459999999957
 31
0
  0
LINE
  5
DF
330
1A
100
AcDbEntity
  8
Edge.Cuts
  6
CONTINUOUS
100
AcDbLine
 10
99.9786889999999886
 20
-39.9886459999999957
 30
0
 11
99.9797749999999894
 21
-39.9853049999999968
 31
0
  0
LINE
  5
E0
330
1A
100
AcDbEntity
  8
Edge.Cuts
  6
CONTINUOUS
100
AcDbLine
 10
99.9797749999999894
 20
-39.9853049999999968
 30
0
 11
99.9880229999999983
 21
-39.9793120000000002
 31
0
  0
LINE
  5
E1
330
1A
100
AcDbEntity
  8
Edge.Cuts
  6
CONTINUOUS
100
AcDbLine
 10
99.9880229999999983
 20
-39.9793120000000002
 30
0
 11
99.9904329999999959
 21
-39.9769030000000001
 31
0
  0
LINE
  5
E2
330
1A
100
AcDbEntity
  8
Edge.Cuts
  6
CONTINUOUS
100
AcDbLine
 10
99.9904329999999959
 20
-39.9769030000000001
 30
0
 11
99.9916819999999973
 21
-39.9766539999999964
 31
0
  0
LINE
  5
E3
330
1A
100
AcDbEntity
  8
Edge.Cuts
  6
CONTINUOUS
100
AcDbLine
 10
99.9916819999999973
 20
-39.9766539999999964
 30
0
 11
99.9922749999999922
 21
-39.9762239999999949
 31
0
  0
LINE
  5
E4
330
1A
100
AcDbEntity
  8
Edge.Cuts
  6
CONTINUOUS
100
AcDbLine
 10
99.9922749999999922
 20
-39.9762239999999949
 30
0
 11
99.9938470000000024
 21
-39.9762239999999949
 31
0
  0
LINE
  5
E5
330
1A
100
AcDbEntity
  8
Edge.Cuts
  6
CONTINUOUS
100
AcDbLine
 10
99.9938470000000024
 20
-39.9762239999999949
 30
0
 11
100.
 21
-39.9750000000000014
 31
0
  0
LINE
  5
E6
330
1A
100
AcDbEntity
  8
Edge.Cuts
  6
CONTINUOUS
100
AcDbLine
 10
100.
 20
-39.9750000000000014
 30
0
 11
230.
 21
-39.9750000000000014
 31
0
  0
LINE
  5
E7
330
1A
100
AcDbEntity
  8
Edge.Cuts
  6
CONTINUOUS
100
AcDbLine
 10
230.
 20
-39.9750000000000014
 30
0
 11
230.0061529999999834
 21
-39.9762239999999949
 31
0
  0
LINE
  5
E8
330
1A
100
AcDbEntity
  8
Edge.Cuts
  6
CONTINUOUS
100
AcDbLine
 10
100.0242449999999934
 20
-40.0249999999999986
 30
0
 11
100.0067099999999982
 21
-40.6052940000000007
 31
0
  0
LINE
  5
E9
330
1A
100
AcDbEntity
  8
Edge.Cuts
  6
CONTINUOUS
100
AcDbLine
 10
100.0067099999999982
 20
-40.6052940000000007
 30
0
 11
99.9519069999999914
 21
-41.2083799999999982
 31
0
  0
LINE
  5
EA
330
1A
100
AcDbEntity
  8
Edge.Cuts
  6
CONTINUOUS
100
AcDbLine
 10
99.9519069999999914
 20
-41.2083799999999982
 30
0
 11
99.8607899999999944
 21
-41.8070570000000004
 31
0
  0
LINE
  5
EB
330
1A
100
AcDbEntity
  8
Edge.Cuts
  6
CONTINUOUS
100
AcDbLine
 10
99.8607899999999944
 20
-41.8070570000000004
 30
0
 11
99.7336919999999907
 21
-42.3991399999999956
 31
0
  0
LINE
  5
EC
330
1A
100
AcDbEntity
  8
Edge.Cuts
  6
CONTINUOUS
100
AcDbLine
 10
99.7336919999999907
 20
-42.3991399999999956
 30
0
 11
99.5710770000000025
 21
-42.9824679999999972
 31
0
  0
LINE
  5
ED
330
1A
100
AcDbEntity
  8
Edge.Cuts
  6
CONTINUOUS
100
AcDbLine
 10
99.5710770000000025
 20
-42.9824679999999972
 30
0
 11
99.3735379999999964
 21
-43.5549139999999966
 31
0
  0
LINE
  5
EE
330
1A
100
AcDbEntity
  8
Edge.Cuts
  6
CONTINUOUS
100
AcDbLine
 10
99.3735379999999964
 20
-43.5549139999999966
 30
0
 11
99.1417959999999994
 21
-44.1143879999999982
 31
0
  0
LINE
  5
EF
330
1A
100
AcDbEntity
  8
Edge.Cuts
  6
CONTINUOUS
100
AcDbLine
 10
99.1417959999999994
 20
-44.1143879999999982
 30
0
 11
98.876696999999993
 21
-44.658850000000001
 31
0
  0
LINE
  5
F0
330
1A
100
AcDbEntity
  8
Edge.Cuts
  6
CONTINUOUS
100
AcDbLine
 10
98.876696999999993
 20
-44.658850000000001
 30
0
 11
98.5792069999999967
 21
-45.1863120000000009
 31
0
  0
LINE
  5
F1
330
1A
100
AcDbEntity
  8
Edge.Cuts
  6
CONTINUOUS
100
AcDbLine
 10
98.5792069999999967
 20
-45.1863120000000009
 30
0
 11
98.2504129999999947
 21
-45.6948489999999978
 31
0
  0
LINE
  5
F2
330
1A
100
AcDbEntity
  8
Edge.Cuts
  6
CONTINUOUS
100
AcDbLine
 10
98.2504129999999947
 20
-45.6948489999999978
 30
0
 11
97.8915149999999983
 21
-46.1826069999999973
 31
0
  0
LINE
  5
F3
330
1A
100
AcDbEntity
  8
Edge.Cuts
  6
CONTINUOUS
100
AcDbLine
 10
97.8915149999999983
 20
-46.1826069999999973
 30
0
 11
97.5038199999999904
 21
-46.6478049999999982
 31
0
  0
LINE
  5
F4
330
1A
100
AcDbEntity
  8
Edge.Cuts
  6
CONTINUOUS
100
AcDbLine
 10
97.5038199999999904
 20
-46.6478049999999982
 30
0
 11
97.0887460000000004
 21
-47.0887460000000004
 31
0
  0
LINE
  5
F5
330
1A
100
AcDbEntity
  8
Edge.Cuts
  6
CONTINUOUS
100
AcDbLine
 10
97.0887460000000004
 20
-47.0887460000000004
 30
0
 11
96.6478049999999911
 21
-47.5038199999999975
 31
0
  0
LINE
  5
F6
330
1A
100
AcDbEntity
  8
Edge.Cuts
  6
CONTINUOUS
100
AcDbLine
 10
96.6478049999999911
 20
-47.5038199999999975
 30
0
 11
96.1826069999999902
 21
-47.8915149999999983
 31
0
  0
LINE
  5
F7
330
1A
100
AcDbEntity
  8
Edge.Cuts
  6
CONTINUOUS
100
AcDbLine
 10
96.1826069999999902
 20
-47.8915149999999983
 30
0
 11
95.6948489999999907
 21
-48.2504129999999947
 31
0
  0
LINE
  5
F8
330
1A
100
AcDbEntity
  8
Edge.Cuts
  6
CONTINUOUS
100
AcDbLine
 10
95.6948489999999907
 20
-48.2504129999999947
 30
0
 11
95.1863120000000009
 21
-48.5792069999999967
 31
0
  0
LINE
  5
F9
330
1A
100
AcDbEntity
  8
Edge.Cuts
  6
CONTINUOUS
100
AcDbLine
 10
95.1863120000000009
 20
-48.5792069999999967
 30
0
 11
94.658850000000001
 21
-48.8766970000000001
 31
0
  0
LINE
  5
FA
330
1A
100
AcDbEntity
  8
Edge.Cuts
  6
CONTINUOUS
100
AcDbLine
 10
94.658850000000001
 20
-48.8766970000000001
 30
0
 11
94.1143879999999911
 21
-49.1417959999999994
 31
0
  0
LINE
  5
FB
330
1A
100
AcDbEntity
  8
Edge.Cuts
  6
CONTINUOUS
100
AcDbLine
 10
94.1143879999999911
 20
-49.1417959999999994
 30
0
 11
93.5549139999999966
 21
-49.3735379999999964
 31
0
  0
LINE
  5
FC
330
1A
100
AcDbEntity
  8
Edge.Cuts
  6
CONTINUOUS
100
AcDbLine
 10
93.5549139999999966
 20
-49.3735379999999964
 30
0
 11
92.9824679999999972
 21
-49.5710769999999954
 31
0
  0
LINE
  5
FD
330
1A
100
AcDbEntity
  8
Edge.Cuts
  6
CONTINUOUS
100
AcDbLine
 10
92.9824679999999972
 20
-49.5710769999999954
 30
0
 11
92.3991400000000027
 21
-49.7336919999999978
 31
0
  0
LINE
  5
FE
330
1A
100
AcDbEntity
  8
Edge.Cuts
  6
CONTINUOUS
100
AcDbLine
 10
92.3991400000000027
 20
-49.7336919999999978
 30
0
 11
91.8070570000000004
 21
-49.8607899999999944
 31
0
  0
LINE
  5
FF
330
1A
100
AcDbEntity
  8
Edge.Cuts
  6
CONTINUOUS
100
AcDbLine
 10
91.8070570000000004
 20
-49.8607899999999944
 30
0
 11
91.2083799999999911
 21
-49.9519069999999985
 31
0
  0
LINE
  5
100
330
1A
100
AcDbEntity
  8
Edge.Cuts
  6
CONTINUOUS
100
AcDbLine
 10
91.2083799999999911
 20
-49.9519069999999985
 30
0
 11
90.6052940000000007
 21
-50.0067099999999982
 31
0
  0
LINE
  5
101
330
1A
100
AcDbEntity
  8
Edge.Cuts
  6
CONTINUOUS
100
AcDbLine
 10
90.6052940000000007
 20
-50.0067099999999982
 30
0
 11
90.0249999999999915
 21
-50.0242439999999959
 31
0
  0
LINE
  5
102
330
1A
100
AcDbEntity
  8
Edge.Cuts
  6
CONTINUOUS
100
AcDbLine
 10
90.0249999999999915
 20
-50.0242439999999959
 30
0
 11
90.0249999999999915
 21
-129.9757549999999924
 31
0
  0
LINE
  5
103
330
1A
100
AcDbEntity
  8
Edge.Cuts
  6
CONTINUOUS
100
AcDbLine
 10
90.0249999999999915
 20
-129.9757549999999924
 30
0
 11
90.6052940000000007
 21
-129.9932900000000018
 31
0
  0
LINE
  5
104
330
1A
100
AcDbEntity
  8
Edge.Cuts
  6
CONTINUOUS
100
AcDbLine
 10
90.6052940000000007
 20
-129.9932900000000018
 30
0
 11
91.2083799999999911
 21
-130.0480929999999944
 31
0
  0
LINE
  5
105
330
1A
100
AcDbEntity
  8
Edge.Cuts
  6
CONTINUOUS
100
AcDbLine
 10
91.2083799999999911
 20
-130.0480929999999944
 30
0
 11
91.8070570000000004
 21
-130.1392099999999914
 31
0
  0
LINE
  5
106
330
1A
100
AcDbEntity
  8
Edge.Cuts
  6
CONTINUOUS
100
AcDbLine
 10
91.8070570000000004
 20
-130.1392099999999914
 30
0
 11
92.3991400000000027
 21
-130.2663079999999809
 31
0
  0
LINE
  5
107
330
1A
100
AcDbEntity
  8
Edge.Cuts
  6
CONTINUOUS
100
AcDbLine
 10
92.3991400000000027
 20
-130.2663079999999809
 30
0
 11
92.9824679999999972
 21
-130.4289229999999975
 31
0
  0
LINE
  5
108
330
1A
100
AcDbEntity
  8
Edge.Cuts
  6
CONTINUOUS
100
AcDbLine
 10
92.9824679999999972
 20
-130.4289229999999975
 30
0
 11
93.5549139999999966
 21
-130.6264620000000036
 31
0
  0
LINE
  5
109
330
1A
100
AcDbEntity
  8
Edge.Cuts
  6
CONTINUOUS
100
AcDbLine
 10
93.5549139999999966
 20
-130.6264620000000036
 30
0
 11
94.1143879999999911
 21
-130.8582040000000006
 31
0
  0
LINE
  5
10A
330
1A
100
AcDbEntity
  8
Edge.Cuts
  6
CONTINUOUS
100
AcDbLine
 10
94.1143879999999911
 20
-130.8582040000000006
 30
0
 11
94.658850000000001
 21
-131.1233029999999928
 31
0
  0
LINE
  5
10B
330
1A
100
AcDbEntity
  8
Edge.Cuts
  6
CONTINUOUS
100
AcDbLine
 10
94.658850000000001
 20
-131.1233029999999928
 30
0
 11
95.1863120000000009
 21
-131.4207930000000033
 31
0
  0
LINE
  5
10C
330
1A
100
AcDbEntity
  8
Edge.Cuts
  6
CONTINUOUS
100
AcDbLine
 10
95.1863120000000009
 20
-131.4207930000000033
 30
0
 11
95.6948489999999907
 21
-131.7495869999999911
 31
0
  0
LINE
  5
10D
330
1A
100
AcDbEntity
  8
Edge.Cuts
  6
CONTINUOUS
100
AcDbLine
 10
95.6948489999999907
 20
-131.7495869999999911
 30
0
 11
96.1826069999999902
 21
-132.1084850000000017
 31
0
  0
LINE
  5
10E
330
1A
100
AcDbEntity
  8
Edge.Cuts
  6
CONTINUOUS
100
AcDbLine
 10
96.1826069999999902
 20
-132.1084850000000017
 30
0
 11
96.6478049999999911
 21
-132.4961799999999812
 31
0
  0
LINE
  5
10F
330
1A
100
AcDbEntity
  8
Edge.Cuts
  6
CONTINUOUS
100
AcDbLine
 10
96.6478049999999911
 20
-132.4961799999999812
 30
0
 11
97.0887460000000004
 21
-132.9112539999999854
 31
0
  0
LINE
  5
110
330
1A
100
AcDbEntity
  8
Edge.Cuts
  6
CONTINUOUS
100
AcDbLine
 10
97.0887460000000004
 20
-132.9112539999999854
 30
0
 11
97.5038199999999904
 21
-133.3521949999999947
 31
0
  0
LINE
  5
111
330
1A
100
AcDbEntity
  8
Edge.Cuts
  6
CONTINUOUS
100
AcDbLine
 10
97.5038199999999904
 20
-133.3521949999999947
 30
0
 11
97.8915149999999983
 21
-133.8173929999999814
 31
0
  0
LINE
  5
112
330
1A
100
AcDbEntity
  8
Edge.Cuts
  6
CONTINUOUS
100
AcDbLine
 10
97.8915149999999983
 20
-133.8173929999999814
 30
0
 11
98.2504129999999947
 21
-134.3051509999999951
 31
0
  0
LINE
  5
113
330
1A
100
AcDbEntity
  8
Edge.Cuts
  6
CONTINUOUS
100
AcDbLine
 10
98.2504129999999947
 20
-134.3051509999999951
 30
0
 11
98.5792069999999967
 21
-134.8136879999999849
 31
0
  0
LINE
  5
114
330
1A
100
AcDbEntity
  8
Edge.Cuts
  6
CONTINUOUS
100
AcDbLine
 10
98.5792069999999967
 20
-134.8136879999999849
 30
0
 11
98.876696999999993
 21
-135.341149999999999
 31
0
  0
LINE
  5
115
330
1A
100
AcDbEntity
  8
Edge.Cuts
  6
CONTINUOUS
100
AcDbLine
 10
98.876696999999993
 20
-135.341149999999999
 30
0
 11
99.1417959999999994
 21
-135.8856119999999805
 31
0
  0
LINE
  5
116
330
1A
100
AcDbEntity
  8
Edge.Cuts
  6
CONTINUOUS
100
AcDbLine
 10
99.1417959999999994
 20
-135.8856119999999805
 30
0
 11
99.3735379999999964
 21
-136.4450860000000034
 31
0
  0
LINE
  5
117
330
1A
100
AcDbEntity
  8
Edge.Cuts
  6
CONTINUOUS
100
AcDbLine
 10
99.3735379999999964
 20
-136.4450860000000034
 30
0
 11
99.5710770000000025
 21
-137.0175319999999886
 31
0
  0
LINE
  5
118
330
1A
100
AcDbEntity
  8
Edge.Cuts
  6
CONTINUOUS
100
AcDbLine
 10
99.5710770000000025
 20
-137.0175319999999886
 30
0
 11
99.7336919999999907
 21
-137.6008599999999831
 31
0
  0
LINE
  5
119
330
1A
100
AcDbEntity
  8
Edge.Cuts
  6
CONTINUOUS
100
AcDbLine
 10
99.7336919999999907
 20
-137.6008599999999831
 30
0
 11
99.8607899999999944
 21
-138.1929429999999854
 31
0
  0
LINE
  5
11A
330
1A
100
AcDbEntity
  8
Edge.Cuts
  6
CONTINUOUS
100
AcDbLine
 10
99.8607899999999944
 20
-138.1929429999999854
 30
0
 11
99.9519069999999914
 21
-138.7916199999999947
 31
0
  0
LINE
  5
11B
330
1A
100
AcDbEntity
  8
Edge.Cuts
  6
CONTINUOUS
100
AcDbLine
 10
99.9519069999999914
 20
-138.7916199999999947
 30
0
 11
100.0067099999999982
 21
-139.3947059999999851
 31
0
  0
LINE
  5
11C
330
1A
100
AcDbEntity
  8
Edge.Cuts
  6
CONTINUOUS
100
AcDbLine
 10
100.0067099999999982
 20
-139.3947059999999851
 30
0
 11
100.0242449999999934
 21
-139.9749999999999943
 31
0
  0
LINE
  5
11D
330
1A
100
AcDbEntity
  8
Edge.Cuts
  6
CONTINUOUS
100
AcDbLine
 10
100.0242449999999934
 20
-139.9749999999999943
 30
0
 11
229.9757549999999924
 21
-139.9749999999999943
 31
0
  0
LINE
  5
11E
330
1A
100
AcDbEntity
  8
Edge.Cuts
  6
CONTINUOUS
100
AcDbLine
 10
229.9757549999999924
 20
-139.9749999999999943
 30
0
 11
229.9932900000000018
 21
-139.3947059999999851
 31
0
  0
LINE
  5
11F
330
1A
100
AcDbEntity
  8
Edge.Cuts
  6
CONTINUOUS
100
AcDbLine
 10
229.9932900000000018
 20
-139.3947059999999851
 30
0
 11
230.0480929999999944
 21
-138.7916199999999947
 31
0
  0
LINE
  5
120
330
1A
100
AcDbEntity
  8
Edge.Cuts
  6
CONTINUOUS
100
AcDbLine
 10
230.0480929999999944
 20
-138.7916199999999947
 30
0
 11
230.1392099999999914
 21
-138.1929429999999854
 31
0
  0
LINE
  5
121
330
1A
100
AcDbEntity
  8
Edge.Cuts
  6
CONTINUOUS
100
AcDbLine
 10
230.1392099999999914
 20
-138.1929429999999854
 30
0
 11
230.2663079999999809
 21
-137.6008599999999831
 31
0
  0
LINE
  5
122
330
1A
100
AcDbEntity
  8
Edge.Cuts
  6
CONTINUOUS
100
AcDbLine
 10
230.2663079999999809
 20
-137.6008599999999831
 30
0
 11
230.4289229999999975
 21
-137.0175319999999886
 31
0
  0
LINE
  5
123
330
1A
100
AcDbEntity
  8
Edge.Cuts
  6
CONTINUOUS
100
AcDbLine
 10
230.4289229999999975
 20
-137.0175319999999886
 30
0
 11
230.6264620000000036
 21
-136.4450860000000034
 31
0
  0
LINE
  5
124
330
1A
100
AcDbEntity
  8
Edge.Cuts
  6
CONTINUOUS
100
AcDbLine
 10
230.6264620000000036
 20
-136.4450860000000034
 30
0
 11
230.8582040000000006
 21
-135.8856119999999805
 31
0
  0
LINE
  5
125
330
1A
100
AcDbEntity
  8
Edge.Cuts
  6
CONTINUOUS
100
AcDbLine
 10
230.8582040000000006
 20
-135.8856119999999805
 30
0
 11
231.1233029999999928
 21
-135.341149999999999
 31
0
  0
LINE
  5
126
330
1A
100
AcDbEntity
  8
Edge.Cuts
  6
CONTINUOUS
100
AcDbLine
 10
231.1233029999999928
 20
-135.341149999999999
 30
0
 11
231.4207930000000033
 21
-134.8136879999999849
 31
0
  0
LINE
  5
127
330
1A
100
AcDbEntity
  8
Edge.Cuts
  6
CONTINUOUS
100
AcDbLine
 10
231.4207930000000033
 20
-134.8136879999999849
 30
0
 11
231.7495869999999911
 21
-134.3051509999999951
 31
0
  0
LINE
  5
128
330
1A
100
AcDbEntity
  8
Edge.Cuts
  6
CONTINUOUS
100
AcDbLine
 10
231.7495869999999911
 20
-134.3051509999999951
 30
0
 11
232.1084850000000017
 21
-133.8173929999999814
 31
0
  0
LINE
  5
129
330
1A
100
AcDbEntity
  8
Edge.Cuts
  6
CONTINUOUS
100
AcDbLine
 10
232.1084850000000017
 20
-133.8173929999999814
 30
0
 11
232.4961799999999812
 21
-133.3521949999999947
 31
0
  0
LINE
  5
12A
330
1A
100
AcDbEntity
  8
Edge.Cuts
  6
CONTINUOUS
100
AcDbLine
 10
232.4961799999999812
 20
-133.3521949999999947
 30
0
 11
232.9112539999999854
 21
-132.9112539999999854
 31
0
  0
LINE
  5
12B
330
1A
100
AcDbEntity
  8
Edge.Cuts
  6
CONTINUOUS
100
AcDbLine
 10
232.9112539999999854
 20
-132.9112539999999854
 30
0
 11
233.3521949999999947
 21
-132.4961799999999812
 31
0
  0
LINE
  5
12C
330
1A
100
AcDbEntity
  8
Edge.Cuts
  6
CONTINUOUS
100
AcDbLine
 10
233.3521949999999947
 20
-132.4961799999999812
 30
0
 11
233.8173929999999814
 21
-132.1084850000000017
 31
0
  0
LINE
  5
12D
330
1A
100
AcDbEntity
  8
Edge.Cuts
  6
CONTINUOUS
100
AcDbLine
 10
233.8173929999999814
 20
-132.1084850000000017
 30
0
 11
234.3051509999999951
 21
-131.7495869999999911
 31
0
  0
LINE
  5
12E
330
1A
100
AcDbEntity
  8
Edge.Cuts
  6
CONTINUOUS
100
AcDbLine
 10
234.3051509999999951
 20
-131.7495869999999911
 30
0
 11
234.8136879999999849
 21
-131.4207930000000033
 31
0
  0
LINE
  5
12F
330
1A
100
AcDbEntity
  8
Edge.Cuts
  6
CONTINUOUS
100
AcDbLine
 10
234.8136879999999849
 20
-131.4207930000000033
 30
0
 11
235.341149999999999
 21
-131.1233029999999928
 31
0
  0
LINE
  5
130
330
1A
100
AcDbEntity
  8
Edge.Cuts
  6
CONTINUOUS
100
AcDbLine
 10
235.341149999999999
 20
-131.1233029999999928
 30
0
 11
235.8856119999999805
 21
-130.8582040000000006
 31
0
  0
LINE
  5
131
330
1A
100
AcDbEntity
  8
Edge.Cuts
  6
CONTINUOUS
100
AcDbLine
 10
235.8856119999999805
 20
-130.8582040000000006
 30
0
 11
236.4450860000000034
 21
-130.6264620000000036
 31
0
  0
LINE
  5
132
330
1A
100
AcDbEntity
  8
Edge.Cuts
  6
CONTINUOUS
100
AcDbLine
 10
236.4450860000000034
 20
-130.6264620000000036
 30
0
 11
237.0175319999999886
 21
-130.4289229999999975
 31
0
  0
LINE
  5
133
330
1A
100
AcDbEntity
  8
Edge.Cuts
  6
CONTINUOUS
100
AcDbLine
 10
237.0175319999999886
 20
-130.4289229999999975
 30
0
 11
237.6008599999999831
 21
-130.2663079999999809
 31
0
  0
LINE
  5
134
330
1A
100
AcDbEntity
  8
Edge.Cuts
  6
CONTINUOUS
100
AcDbLine
 10
237.6008599999999831
 20
-130.2663079999999809
 30
0
 11
238.1929429999999854
 21
-130.1392099999999914
 31
0
  0
LINE
  5
135
330
1A
100
AcDbEntity
  8
Edge.Cuts
  6
CONTINUOUS
100
AcDbLine
 10
238.1929429999999854
 20
-130.1392099999999914
 30
0
 11
238.7916199999999947
 21
-130.0480929999999944
 31
0
  0
LINE
  5
136
330
1A
100
AcDbEntity
  8
Edge.Cuts
  6
CONTINUOUS
100
AcDbLine
 10
238.7916199999999947
 20
-130.0480929999999944
 30
0
 11
239.3947059999999851
 21
-129.9932900000000018
 31
0
  0
LINE
  5
137
330
1A
100
AcDbEntity
  8
Edge.Cuts
  6
CONTINUOUS
100
AcDbLine
 10
239.3947059999999851
 20
-129.9932900000000018
 30
0
 11
239.9749999999999943
 21
-129.9757549999999924
 31
0
  0
LINE
  5
138
330
1A
100
AcDbEntity
  8
Edge.Cuts
  6
CONTINUOUS
100
AcDbLine
 10
239.9749999999999943
 20
-129.9757549999999924
 30
0
 11
239.9749999999999943
 21
-50.0242439999999959
 31
0
  0
LINE
  5
139
330
1A
100
AcDbEntity
  8
Edge.Cuts
  6
CONTINUOUS
100
AcDbLine
 10
239.9749999999999943
 20
-50.0242439999999959
 30
0
 11
239.3947059999999851
 21
-50.0067099999999982
 31
0
  0
LINE
  5
13A
330
1A
100
AcDbEntity
  8
Edge.Cuts
  6
CONTINUOUS
100
AcDbLine
 10
239.3947059999999851
 20
-50.0067099999999982
 30
0
 11
238.7916199999999947
 21
-49.9519069999999985
 31
0
  0
LINE
  5
13B
330
1A
100
AcDbEntity
  8
Edge.Cuts
  6
CONTINUOUS
100
AcDbLine
 10
238.7916199999999947
 20
-49.9519069999999985
 30
0
 11
238.1929429999999854
 21
-49.8607899999999944
 31
0
  0
LINE
  5
13C
330
1A
100
AcDbEntity
  8
Edge.Cuts
  6
CONTINUOUS
100
AcDbLine
 10
238.1929429999999854
 20
-49.8607899999999944
 30
0
 11
237.6008599999999831
 21
-49.7336919999999978
 31
0
  0
LINE
  5
13D
330
1A
100
AcDbEntity
  8
Edge.Cuts
  6
CONTINUOUS
100
AcDbLine
 10
237.6008599999999831
 20
-49.7336919999999978
 30
0
 11
237.0175319999999886
 21
-49.5710769999999954
 31
0
  0
LINE
  5
13E
330
1A
100
AcDbEntity
  8
Edge.Cuts
  6
CONTINUOUS
100
AcDbLine
 10
237.0175319999999886
 20
-49.5710769999999954
 30
0
 11
236.4450860000000034
 21
-49.3735379999999964
 31
0
  0
LINE
  5
13F
330
1A
100
AcDbEntity
  8
Edge.Cuts
  6
CONTINUOUS
100
AcDbLine
 10
236.4450860000000034
 20
-49.3735379999999964
 30
0
 11
235.8856119999999805
 21
-49.1417959999999994
 31
0
  0
LINE
  5
140
330
1A
100
AcDbEntity
  8
Edge.Cuts
  6
CONTINUOUS
100
AcDbLine
 10
235.8856119999999805
 20
-49.1417959999999994
 30
0
 11
235.341149999999999
 21
-48.8766970000000001
 31
0
  0
LINE
  5
141
330
1A
100
AcDbEntity
  8
Edge.Cuts
  6
CONTINUOUS
100
AcDbLine
 10
235.341149999999999
 20
-48.8766970000000001
 30
0
 11
234.8136879999999849
 21
-48.5792069999999967
 31
0
  0
LINE
  5
142
330
1A
100
AcDbEntity
  8
Edge.Cuts
  6
CONTINUOUS
100
AcDbLine
 10
234.8136879999999849
 20
-48.5792069999999967
 30
0
 11
234.3051509999999951
 21
-48.2504129999999947
 31
0
  0
LINE
  5
143
330
1A
100
AcDbEntity
  8
Edge.Cuts
  6
CONTINUOUS
100
AcDbLine
 10
234.3051509999999951
 20
-48.2504129999999947
 30
0
 11
233.8173929999999814
 21
-47.8915149999999983
 31
0
  0
LINE
  5
144
330
1A
100
AcDbEntity
  8
Edge.Cuts
  6
CONTINUOUS
100
AcDbLine
 10
233.8173929999999814
 20
-47.8915149999999983
 30
0
 11
233.3521949999999947
 21
-47.5038199999999975
 31
0
  0
LINE
  5
145
330
1A
100
AcDbEntity
  8
Edge.Cuts
  6
CONTINUOUS
100
AcDbLine
 10
233.3521949999999947
 20
-47.5038199999999975
 30
0
 11
232.9112539999999854
 21
-47.0887460000000004
 31
0
  0
LINE
  5
146
330
1A
100
AcDbEntity
  8
Edge.Cuts
  6
CONTINUOUS
100
AcDbLine
 10
232.9112539999999854
 20
-47.0887460000000004
 30
0
 11
232.4961799999999812
 21
-46.6478049999999982
 31
0
  0
LINE
  5
147
330
1A
100
AcDbEntity
  8
Edge.Cuts
  6
CONTINUOUS
100
AcDbLine
 10
232.4961799999999812
 20
-46.6478049999999982
 30
0
 11
232.1084850000000017
 21
-46.1826069999999973
 31
0
  0
LINE
  5
148
330
1A
100
AcDbEntity
  8
Edge.Cuts
  6
CONTINUOUS
100
AcDbLine
 10
232.1084850000000017
 20
-46.1826069999999973
 30
0
 11
231.7495869999999911
 21
-45.6948489999999978
 31
0
  0
LINE
  5
149
330
1A
100
AcDbEntity
  8
Edge.Cuts
  6
CONTINUOUS
100
AcDbLine
 10
231.7495869999999911
 20
-45.6948489999999978
 30
0
 11
231.4207930000000033
 21
-45.1863120000000009
 31
0
  0
LINE
  5
14A
330
1A
100
AcDbEntity
  8
Edge.Cuts
  6
CONTINUOUS
100
AcDbLine
 10
231.4207930000000033
 20
-45.1863120000000009
 30
0
 11
231.1233029999999928
 21
-44.658850000000001
 31
0
  0
LINE
  5
14B
330
1A
100
AcDbEntity
  8
Edge.Cuts
  6
CONTINUOUS
100
AcDbLine
 10
231.1233029999999928
 20
-44.658850000000001
 30
0
 11
230.8582040000000006
 21
-44.1143879999999982
 31
0
  0
LINE
  5
14C
330
1A
100
AcDbEntity
  8
Edge.Cuts
  6
CONTINUOUS
100
AcDbLine
 10
230.8582040000000006
 20
-44.1143879999999982
 30
0
 11
230.6264620000000036
 21
-43.5549139999999966
 31
0
  0
LINE
  5
14D
330
1A
100
AcDbEntity
  8
Edge.Cuts
  6
CONTINUOUS
100
AcDbLine
 10
230.6264620000000036
 20
-43.5549139999999966
 30
0
 11
230.4289229999999975
 21
-42.9824679999999972
 31
0
  0
LINE
  5
14E
330
1A
100
AcDbEntity
  8
Edge.Cuts
  6
CONTINUOUS
100
AcDbLine
 10
230.4289229999999975
 20
-42.9824679999999972
 30
0
 11
230.2663079999999809
 21
-42.3991399999999956
 31
0
  0
LINE
  5
14F
330
1A
100
AcDbEntity
  8
Edge.Cuts
  6
CONTINUOUS
100
AcDbLine
 10
230.2663079999999809
 20
-42.3991399999999956
 30
0
 11
230.1392099999999914
 21
-41.8070570000000004
 31
0
  0
LINE
  5
150
330
1A
100
AcDbEntity
  8
Edge.Cuts
  6
CONTINUOUS
100
AcDbLine
 10
230.1392099999999914
 20
-41.8070570000000004
 30
0
 11
230.0480929999999944
 21
-41.2083799999999982
 31
0
  0
LINE
  5
151
330
1A
100
AcDbEntity
  8
Edge.Cuts
  6
CONTINUOUS
100
AcDbLine
 10
230.0480929999999944
 20
-41.2083799999999982
 30
0
 11
229.9932900000000018
 21
-40.6052940000000007
 31
0
  0
LINE
  5
152
330
1A
100
AcDbEntity
  8
Edge.Cuts
  6
CONTINUOUS
100
AcDbLine
 10
229.9932900000000018
 20
-40.6052940000000007
 30
0
 11
229.9757549999999924
 21
-40.0249999999999986
 31
0
  0
LINE
  5
153
330
1A
100
AcDbEntity
  8
Edge.Cuts
  6
CONTINUOUS
100
AcDbLine
 10
229.9757549999999924
 20
-40.0249999999999986
 30
0
 11
100.0242449999999934
 21
-40.0249999999999986
 31
0
  0
ENDSEC
  0
SECTION
  2
OBJECTS
  0
DICTIONARY
  5
20
330
0
100
AcDbDictionary
281
1
  3
ACAD_GROUP
350
154
  3
ACAD_LAYOUT
350
21
  3
ACAD_PLOTSTYLENAME
350
11
  0
DICTIONARY
  5
154
330
20
100
AcDbDictionary
281
1
  0
ACDBDICTIONARYWDFLT
  5
11
330
20
100
AcDbDictionary
281
1
  3
Normal
350
10
100
AcDbDictionaryWithDefault
340
10
  0
ACDBPLACEHOLDER
  5
10
330
11
  0
DICTIONARY
  5
21
330
20
100
AcDbDictionary
281
1
  3
Model
350
1D
  3
Layout1
350
1E
  3
Layout2
350
1F
  0
LAYOUT
  5
1D
330
21
100
AcDbPlotSettings
  1

  2
none_device
  4
A3
  6

 40
0.0
 41
0.0
 42
0.0
 43
0.0
 44
420.0
 45
297.0
 46
0.0
 47
0.0
 48
0.0
 49
0.0
140
0.0
141
0.0
142
1.0
143
1.0
 70
1024
 72
1
 73
0
 74
5
  7

 75
16
 76
0
 77
2
 78
300
147
1.0
148
0.0
149
0.0
100
AcDbLayout
  1
Model
 70
1
 71
0
 10
0.0
 20
0.0
 11
420.0
 21
297.0
 12
0.0
 22
0.0
 32
0.0
 14
1e+20
 24
1e+20
 34
1e+20
 15
-1e+20
 25
-1e+20
 35
-1e+20
146
0.0
 13
0.0
 23
0.0
 33
0.0
 16
1.0
 26
0.0
 36
0.0
 17
0.0
 27
1.0
 37
0.0
 76
0
330
1A
  0
LAYOUT
  5
1E
330
21
100
AcDbPlotSettings
  1

  2
none_device
  4
A3
  6

 40
0.0
 41
0.0
 42
0.0
 43
0.0
 44
420.0
 45
297.0
 46
0.0
 47
0.0
 48
0.0
 49
0.0
140
0.0
141
0.0
142
1.0
143
1.0
 70
0
 72
1
 73
0
 74
5
  7

 75
16
 76
0
 77
2
 78
300
147
1.0
148
0.0
149
0.0
100
AcDbLayout
  1
Layout1
 70
1
 71
1
 10
0.0
 20
0.0
 11
420.0
 21
297.0
 12
0.0
 22
0.0
 32
0.0
 14
1e+20
 24
1e+20
 34
1e+20
 15
-1e+20
 25
-1e+20
 35
-1e+20
146
0.0
 13
0.0
 23
0.0
 33
0.0
 16
1.0
 26
0.0
 36
0.0
 17
0.0
 27
1.0
 37
0.0
 76
0
330
1B
  0
LAYOUT
  5
1F
330
21
100
AcDbPlotSettings
  1

  2
none_device
  4
A3
  6

 40
0.0
 41
0.0
 42
0.0
 43
0.0
 44
420.0
 45
297.0
 46
0.0
 47
0.0
 48
0.0
 49
0.0
140
0.0
141
0.0
142
1.0
143
1.0
 70
0
 72
1
 73
0
 74
5
  7

 75
16
 76
0
 77
2
 78
300
147
1.0
148
0.0
149
0.0
100
AcDbLayout
  1
Layout2
 70
1
 71
2
 10
0.0
 20
0.0
 11
420.0
 21
297.0
 12
0.0
 22
0.0
 32
0.0
 14
1e+20
 24
1e+20
 34
1e+20
 15
-1e+20
 25
-1e+20
 35
-1e+20
146
0.0
 13
0.0
 23
0.0
 33
0.0
 16
1.0
 26
0.0
 36
0.0
 17
0.0
 27
1.0
 37
0.0
 76
0
330
1C
  0
ENDSEC
  0
EOF
